HIERARCHY
ROOT Hips
{
  OFFSET 90.7885 88.945 -76.2838
  CHANNELS 6 Xposition Yposition Zposition Zrotation Xrotation Yrotation
  JOINT LeftUpLeg
  {
    OFFSET 8.64259 1.95398 -2.38835
    CHANNELS 3 Zrotation Xrotation Yrotation
    JOINT LeftLeg
    {
      OFFSET 43.7702 0 0
      CHANNELS 3 Zrotation Xrotation Yrotation
      JOINT LeftFoot
      {
        OFFSET 40.6238 0 0
        CHANNELS 3 Zrotation Xrotation Yrotation
        JOINT LeftToeBase
        {
          OFFSET 12.7242 0 0
          CHANNELS 3 Zrotation Xrotation Yrotation
          End Site
          {
            OFFSET 0 0 0
          }
        }
      }
    }
  }
  JOINT RightUpLeg
  {
    OFFSET -8.2249 1.95398 -2.59336
    CHANNELS 3 Zrotation Xrotation Yrotation
    JOINT RightLeg
    {
      OFFSET 43.5653 0 0
      CHANNELS 3 Zrotation Xrotation Yrotation
      JOINT RightFoot
      {
        OFFSET 40.6238 0 0
        CHANNELS 3 Zrotation Xrotation Yrotation
        JOINT RightToeBase
        {
          OFFSET 12.7242 0 0
          CHANNELS 3 Zrotation Xrotation Yrotation
          End Site
          {
            OFFSET 0 0 0
          }
        }
      }
    }
  }
  JOINT Spine
  {
    OFFSET 0.165834 0.87714 6.61349
    CHANNELS 3 Zrotation Xrotation Yrotation
    JOINT Spine1
    {
      OFFSET 7.38963 1.71661e-005 0
      CHANNELS 3 Zrotation Xrotation Yrotation
      JOINT Spine2
      {
        OFFSET 11.9445 1.14441e-005 0
        CHANNELS 3 Zrotation Xrotation Yrotation
        JOINT Spine3
        {
          OFFSET 14.7254 4.19617e-005 0
          CHANNELS 3 Zrotation Xrotation Yrotation
          JOINT Spine4
          {
            OFFSET 10.9679 0 0
            CHANNELS 3 Zrotation Xrotation Yrotation
            JOINT RightShoulder
            {
              OFFSET 2.46616 -1.6653 3.69651
              CHANNELS 3 Zrotation Xrotation Yrotation
              JOINT RightArm
              {
                OFFSET 13.0012 0 0
                CHANNELS 3 Zrotation Xrotation Yrotation
                JOINT RightForeArm
                {
                  OFFSET 28.7848 1.52588e-005 0
                  CHANNELS 3 Zrotation Xrotation Yrotation
                  JOINT RightHand
                  {
                    OFFSET 26.5688 1.52588e-005 0
                    CHANNELS 3 Zrotation Xrotation Yrotation
                    End Site
                    {
                      OFFSET 0 0 0
                    }
                  }
                }
              }
            }
            JOINT LeftShoulder
            {
              OFFSET 2.38034 -1.29275 -3.7523
              CHANNELS 3 Zrotation Xrotation Yrotation
              JOINT LeftArm
              {
                OFFSET 16.3182 6.10352e-005 0
                CHANNELS 3 Zrotation Xrotation Yrotation
                JOINT LeftForeArm
                {
                  OFFSET 27.0901 0 0
                  CHANNELS 3 Zrotation Xrotation Yrotation
                  JOINT LeftHand
                  {
                    OFFSET 24.5451 1.52588e-005 0
                    CHANNELS 3 Zrotation Xrotation Yrotation
                    End Site
                    {
                      OFFSET 0 0 0
                    }
                  }
                }
              }
            }
            JOINT Neck
            {
              OFFSET 5.0226 -0.0266342 0
              CHANNELS 3 Zrotation Xrotation Yrotation
              JOINT Head
              {
                OFFSET 6.69363 2.86102e-005 0
                CHANNELS 3 Zrotation Xrotation Yrotation
                End Site
                {
                  OFFSET 0 0 0
                }
              }
            }
          }
        }
      }
    }
  }
}
MOTION
Frames:	13
Frame Time:	0.0416667
28.9716 96.7528 -99.9121 -178.2 -81.1285 178.903 -174.181 -1.23669 87.6486 -31.2206 11.392 -4.73313 83.4287 9.20574 -5.12506 15.1225 0.138137 2.0647 173.253 22.5549 86.0526 -32.2711 -8.6249 -1.61859 67.1406 -4.10169 -2.32345 16.6291 -2.15226 6.21642 -0.45655 8.24493 -90.042 10.3883 -0.928586 0.00159633 -1.28235 -0.927611 0.0424642 -23.8201 -0.886141 -0.277579 -3.80748 -0.886142 -0.277572 88.9352 -34.7903 -107.013 32.8695 -10.8384 -5.03791 4.07288 -22.0989 -14.4 -23.7005 -0.553717 -7.87087 -88.3347 -47.0885 80.6633 -23.9761 2.52142 -22.8233 10.3964 -0.0751045 -14.3136 1.83125 -0.286254 -9.67932 -13.7072 1.95954 -8.185 -2.46884 2.12105 3.19828 
30.1004 97.3986 -103.49 -158.052 -79.7037 -162.126 -176.788 -1.11971 84.0999 -28.269 5.48502 -4.75261 80.9853 7.99636 -3.73686 12.1591 0.486106 1.94988 174.901 20.6642 83.7899 -45.3711 -9.45201 -3.55052 70.4152 -5.9366 -1.31841 19.1892 -1.31021 4.3841 0.0786333 8.2499 -89.5556 10.3718 0.360161 0.849938 -1.29941 0.397215 0.83326 -23.8323 0.0880748 0.918875 -3.81965 0.0880798 0.918884 88.3991 -32.6278 -108.84 35.804 -12.9888 -3.92507 3.11192 -22.8818 -16.8469 -23.8053 -0.526111 -8.23741 -88.1118 -49.9475 81.5433 -20.6222 6.84008 -14.0282 6.98891 -4.67404 -10.6143 0.244871 -0.187759 -8.56678 -15.4359 1.89107 -8.16438 -1.44436 1.95118 1.36796 
30.6563 97.7471 -106.447 -152.935 -78.92 -157.272 -178.445 -0.125157 82.2882 -26.1504 2.48766 -3.48465 78.4405 6.4195 -3.78229 11.7237 1.07888 1.37004 175.24 14.7373 82.1997 -55.7564 -10.2085 -4.55055 71.3031 -6.65082 -3.56745 21.9601 -2.53365 6.54461 0.456987 8.15815 -89.3272 10.5496 1.21935 1.22789 -1.12128 1.2722 1.17303 -23.6541 0.793992 1.53754 -3.64142 0.793995 1.53754 88.3162 -31.221 -109.563 37.7069 -14.625 -2.35847 2.0973 -22.0841 -19.4213 -25.5318 -0.448345 -8.24137 -87.9196 -53.1156 82.3886 -22.7047 5.48407 -3.55304 6.70125 -7.97442 -7.38222 -2.73394 -0.0769574 -8.66939 -15.6653 0.881957 -7.19256 -1.33099 0.900787 -1.06009 
31.0789 97.6772 -109.184 -148.297 -79.1668 -153.491 -179.021 2.48655 80.9622 -26.0705 2.18474 -3.46029 77.2158 6.05092 -1.89494 9.50681 1.00741 1.75779 173.959 7.08326 79.887 -59.8846 -13.459 -5.13887 69.6914 -5.70534 -1.8307 22.3348 -1.89148 5.19858 0.809946 7.92438 -89.038 11.0067 2.05808 1.71749 -0.663636 2.13166 1.62524 -23.1971 1.4469 2.25649 -3.1844 1.4469 2.25649 88.0994 -30.4875 -110.293 40.1666 -13.5904 -0.930333 1.52831 -21.827 -19.1541 -25.4402 -0.359878 -8.65186 -87.0574 -54.6581 83.8765 -25.1234 7.10184 7.84952 4.3944 -16.959 -5.69188 2.06874 -0.1068 -4.49341 -15.985 -0.0814008 -7.71742 -1.32121 -0.0981697 -2.45636 
30.8358 97.2813 -112.513 -144.177 -79.4995 -150.097 -178.01 5.85052 81.5788 -27.1638 2.70378 -5.06006 75.5033 5.55892 -2.79185 10.2174 0.632743 2.05755 172.17 -1.43799 79.1253 -56.7779 -21.2517 -5.93781 69.2498 -5.35344 -2.31469 23.7893 -2.78826 7.00392 1.09609 7.72633 -88.7303 11.3923 2.77345 2.24845 -0.277447 2.86969 2.12419 -22.8107 1.96979 2.97774 -2.79807 1.96979 2.97774 88.1202 -30.4368 -110.274 41.8226 -13.5422 -1.03087 2.27362 -21.8697 -19.3449 -25.853 -0.334022 -8.73511 -86.3758 -55.001 84.8991 -27.8184 6.24385 16.0484 3.73274 -19.6031 -6.07658 0.642333 -0.0753452 -3.71528 -15.1194 -0.600621 -9.00594 -2.14509 -0.533283 -3.02249 
30.8917 96.8807 -117.201 -137.88 -78.4552 -144.721 -178.052 9.22041 81.1468 -27.5312 0.355203 -5.50164 72.8722 4.37038 -3.70969 8.72334 0.0109642 2.88481 171.34 -9.41308 78.4839 -47.4902 -31.3869 -8.04912 69.6321 -5.37426 -2.57791 27.1691 -3.55188 8.42349 1.39026 7.74069 -88.4616 11.3459 3.48361 2.71589 -0.322893 3.59973 2.5599 -22.8572 2.50689 3.63683 -2.84453 2.50689 3.63682 87.8948 -30.5076 -110.681 41.5365 -14.5694 -2.23232 2.07861 -22.6723 -19.964 -27.1202 -0.386194 -8.56291 -85.8069 -54.5779 85.6536 -30.1022 5.26654 17.9289 4.11301 -18.523 -6.29788 -0.672905 -0.072705 -3.1514 -14.0753 -0.942628 -9.96297 -1.25389 -0.799611 -2.63535 
30.9748 96.357 -124.019 -128.979 -76.9672 -136.112 -178.379 12.8485 81.3269 -24.7527 -2.22105 -5.15565 68.112 2.8191 -3.32188 7.54116 -0.255877 3.2957 171.497 -11.6203 79.1148 -39.0115 -31.0609 -9.04826 77.5303 -9.68756 -3.50825 32.2778 -5.27261 12.7441 1.63511 7.88461 -88.477 11.0547 3.96101 2.64969 -0.612505 4.07375 2.47267 -23.1565 2.98207 3.71739 -3.14385 2.98207 3.71739 88.4354 -29.0706 -110.247 39.9483 -14.4938 -4.24545 -0.867531 -27.712 -23.6073 -27.351 -1.22956 -5.84796 -85.9587 -56.6986 85.7156 -28.7268 5.58893 13.7979 3.7407 -19.7684 -7.60422 -1.45243 -0.09203 -4.5565 -12.1195 -1.12693 -6.70651 -0.973716 -0.941725 -4.38282 
30.7629 95.5972 -132.621 -126.673 -76.4479 -131.3 -178.518 16.4487 84.7795 -20.5316 -4.17027 -3.93836 62.7296 0.908549 -4.48732 11.6438 -2.82145 5.72643 174.046 -9.67496 83.8042 -36.1647 -28.201 -8.12867 86.2186 -14.4978 -4.41226 28.198 -3.82804 9.07705 1.56282 8.12507 -88.9632 10.5979 3.58938 1.73646 -1.06903 3.66232 1.57665 -23.623 2.90169 2.73528 -3.61038 2.90169 2.73527 88.2419 -27.565 -111.313 36.7734 -13.4708 -7.26486 -2.05625 -29.2262 -24.4141 -26.5608 -0.736129 -8.88561 -86.1223 -60.5696 85.9803 -21.407 7.86679 4.86466 3.69849 -15.2729 -9.87005 -2.009 -0.100794 -7.38103 -10.3602 -0.486957 -2.27785 -0.39213 -0.451316 -5.57526 
30.1891 95.1658 -141.291 -136.408 -78.4853 -139.201 -177.329 18.0706 87.7983 -16.1507 -6.78132 -4.15577 62.7412 1.95609 -6.08037 21.5881 -5.6127 8.37972 174.93 -3.51457 87.139 -38.5674 -25.141 -6.20347 89.8955 -15.424 -2.29314 21.8114 -3.66504 8.82733 1.14962 8.43397 -89.3693 9.9923 2.57783 1.04006 -1.67642 2.62111 0.925534 -24.2234 2.14607 1.76693 -4.21077 2.14608 1.76693 87.9363 -28.2652 -111.612 33.3759 -12.2149 -8.62837 -2.32199 -27.4497 -24.7472 -28.0932 -0.677281 -8.53396 -86.8566 -61.0047 85.0507 -14.3622 8.44353 -6.67417 3.63419 -15.639 -9.25069 1.28814 -0.145723 -6.24755 -9.31409 -0.080561 -0.911742 0.368916 -0.128641 -5.17728 
29.5035 96.0876 -148.485 -160.793 -79.075 -163.13 -175.382 21.4994 89.0015 -26.7791 -6.52473 -4.33305 66.5851 3.61826 -2.14011 14.8877 -1.02922 3.39197 173.893 -0.83328 88.6523 -38.1561 -24.0877 -4.19079 85.3012 -13.2665 -3.71253 22.8647 -4.21398 9.96368 0.62766 8.7737 -89.63 9.32295 1.41786 0.627971 -2.34737 1.44411 0.564939 -24.8857 1.16358 1.02509 -4.87306 1.16358 1.02508 88.1048 -28.8402 -111.003 33.443 -12.348 -6.51716 -0.965652 -23.2466 -23.9768 -27.772 -0.359264 -8.86151 -87.8323 -57.7725 83.2665 -11.8558 6.84061 -15.474 4.51855 -12.923 -10.4622 1.6019 -0.168594 -6.68202 -9.80472 0.139004 -2.27634 0.119828 0.194133 -3.8839 
28.9267 97.3332 -153.987 -179.89 -78.4961 178.441 -174.33 23.1668 90.9505 -42.7266 4.75003 -1.90761 68.4009 4.26913 -0.407727 11.6763 3.06218 -0.763716 173.233 -0.222329 89.9045 -34.0112 -22.3158 -2.79237 79.8896 -10.3944 -3.89666 23.7064 -3.93061 9.36147 0.155459 8.91552 -89.9085 9.04259 0.350973 0.15666 -2.6283 0.357536 0.141059 -25.1637 0.287673 0.254903 -5.15102 0.287663 0.254892 88.7537 -30.5642 -108.986 34.5543 -12.5477 -3.03571 0.158648 -22.7144 -21.8614 -26.4786 -0.332839 -8.95707 -88.105 -52.5623 82.0238 -13.1413 6.11862 -21.0172 5.01694 -10.7707 -14.4161 1.65564 -0.216856 -7.96101 -10.6074 0.616862 -6.0423 -0.541326 0.913519 0.798313 
28.7016 97.7917 -158.584 169.157 -78.0401 167.764 -173.857 19.7666 92.7439 -55.9319 7.37247 1.05331 70.9976 5.53009 0.540358 13.5839 3.28369 -1.36203 174.551 2.17105 91.6847 -33.2022 -18.5954 -3.3876 76.6873 -8.29568 -3.12216 21.0259 -4.15836 9.8401 -0.278334 8.82696 -90.1309 9.2195 -0.613694 -0.214698 -2.45135 -0.622548 -0.187492 -24.9871 -0.520801 -0.389213 -4.97444 -0.520802 -0.389223 89.2201 -31.5852 -107.678 37.083 -10.5985 1.98151 1.51809 -22.6566 -19.8567 -26.1084 -0.329717 -8.97078 -89.0212 -48.3793 79.8571 -16.8224 2.31049 -25.3397 8.12884 -5.73526 -15.8398 1.91591 -0.26083 -8.98555 -12.7737 1.74684 -8.13251 -1.3402 1.99974 3.25101 
29.0283 97.7969 -162.396 160.34 -77.107 160.337 -173.588 11.5184 96.0213 -63.2145 12.6897 4.03337 69.8969 4.94763 -0.788355 11.7128 2.29896 0.0682097 174.914 3.76361 93.0895 -31.9553 -16.7147 -2.83076 74.0715 -6.90612 -3.55856 22.908 -4.06983 9.65915 -0.847506 8.70677 -90.4962 9.45518 -1.91323 -0.839726 -2.21457 -1.94833 -0.754691 -24.7559 -1.57242 -1.37598 -4.74324 -1.57242 -1.37598 89.9485 -32.0435 -106.099 38.873 -8.87025 6.11568 3.43401 -21.6017 -17.8112 -25.1625 -0.526067 -7.74041 -89.1925 -45.8377 79.0614 -20.359 -0.0266976 -26.673 9.2941 -5.13719 -18.6336 4.76191 -0.309013 -7.81494 -14.7369 3.13752 -7.52624 -2.00302 3.25724 4.85285 
